<svg xmlns="http://www.w3.org/2000/svg" viewBox="0 0 183 81">
  <defs>
    <style>
      .cls-1{fill:#0047bb;}
      .cls-2{fill:url(#linear-gradient);}
    </style>
    <linearGradient id="linear-gradient" x1="-410.75" y1="414.73" x2="-410.75" y2="415.73" gradientTransform="matrix(48, 0, 0, -37, 19875, 15382)" gradientUnits="userSpaceOnUse">
      <stop offset="0" stop-color="#0047bb"/>
      <stop offset="0.08" stop-color="#004cbc"/>
      <stop offset="0.18" stop-color="#0059bd"/>
      <stop offset="0.28" stop-color="#0070c0"/>
      <stop offset="0.38" stop-color="#0090c4"/>
      <stop offset="0.47" stop-color="#00aec7"/>
      <stop offset="0.52" stop-color="#22b8cb"/>
      <stop offset="0.58" stop-color="#47c3cf"/>
      <stop offset="0.66" stop-color="#66cbd3"/>
      <stop offset="0.73" stop-color="#7ed2d6"/>
      <stop offset="0.81" stop-color="#8fd7d7"/>
      <stop offset="0.89" stop-color="#99dad9"/>
      <stop offset="1" stop-color="#9cdbd9"/>
    </linearGradient>
  </defs>
  <g>
    <g>
      <g data-name="CIBINQO TM RGB FC Grd Pos">
      <path class="cls-1" d="M111.09,65.52H109a.1.1,0,0,0-.11.11v8.42a2.86,2.86,0,0,0,.45,1.82,1.76,1.76,0,0,0,1.41.51H111a.24.24,0,0,1,.2.07.23.23,0,0,1,.07.19v.71a.26.26,0,0,1-.07.2.23.23,0,0,1-.2.06h-.52a3.14,3.14,0,0,1-2.21-.68,3.34,3.34,0,0,1-.75-2.54V65.63a.08.08,0,0,0,0-.08.13.13,0,0,0-.08,0h-1.08a.22.22,0,0,1-.19-.06.25.25,0,0,1-.07-.2v-.57a.24.24,0,0,1,.07-.2.23.23,0,0,1,.19-.07h1.08a.08.08,0,0,0,.08,0,.11.11,0,0,0,0-.08V61.39a.25.25,0,0,1,.06-.2.24.24,0,0,1,.2-.06h.84a.22.22,0,0,1,.19.06.26.26,0,0,1,.07.2v2.93a.08.08,0,0,0,.1.1h2.09a.24.24,0,0,1,.27.27v.57a.25.25,0,0,1-.07.2.21.21,0,0,1-.2.06Zm9-.11a4.74,4.74,0,0,1,1,3.18v8.76a.26.26,0,0,1-.07.2.23.23,0,0,1-.2.06H120a.22.22,0,0,1-.26-.26v-.94s0-.09,0-.09-.06,0-.09,0a3.39,3.39,0,0,1-3,1.46,3.77,3.77,0,0,1-2.41-.81,3.48,3.48,0,0,1-1-2.85A3.93,3.93,0,0,1,114.35,71a4.9,4.9,0,0,1,3.23-1h2a.08.08,0,0,0,.08,0,.11.11,0,0,0,0-.08v-1.2a3.78,3.78,0,0,0-.66-2.33,2.12,2.12,0,0,0-1.8-.86,2.35,2.35,0,0,0-1.56.57,2.24,2.24,0,0,0-.77,1.5.26.26,0,0,1-.07.2.22.22,0,0,1-.19.06l-1,0a.27.27,0,0,1-.19-.08.2.2,0,0,1,0-.18,3.41,3.41,0,0,1,1.23-2.36,3.94,3.94,0,0,1,2.59-.89,3.5,3.5,0,0,1,2.79,1.19Zm-1.23,10.42a2.7,2.7,0,0,0,.85-2.14V71.2a.11.11,0,0,0,0-.08.08.08,0,0,0-.08,0h-2a3.15,3.15,0,0,0-2.18.74,2.82,2.82,0,0,0-.83,2.21A2.59,2.59,0,0,0,115.2,76a2.21,2.21,0,0,0,1.65.63A2.93,2.93,0,0,0,118.88,75.83Zm12-10.53a4.14,4.14,0,0,1,1,2.84v5.78a4,4,0,0,1-1,2.81,3.35,3.35,0,0,1-2.61,1.09,3.51,3.51,0,0,1-1.46-.31,3.06,3.06,0,0,1-1.16-.92.12.12,0,0,0-.09,0,.08.08,0,0,0,0,.07v.73a.22.22,0,0,1-.26.26h-.86a.23.23,0,0,1-.2-.06.24.24,0,0,1-.06-.2V59.56a.23.23,0,0,1,.26-.26h.86a.23.23,0,0,1,.26.26v5.86a.07.07,0,0,0,.06.07.06.06,0,0,0,.07,0,3.06,3.06,0,0,1,1.16-.92,3.51,3.51,0,0,1,1.46-.31,3.35,3.35,0,0,1,2.61,1.08Zm-1.09.91a2.4,2.4,0,0,0-1.83-.77,2.27,2.27,0,0,0-1.76.77,2.94,2.94,0,0,0-.68,2v5.62a2.87,2.87,0,0,0,.68,2,2.28,2.28,0,0,0,1.76.76,2.4,2.4,0,0,0,1.83-.77,2.87,2.87,0,0,0,.71-2V68.22a2.86,2.86,0,0,0-.71-2Zm4.92,11.13V59.55a.22.22,0,0,1,.06-.19.26.26,0,0,1,.2-.07h.86a.24.24,0,0,1,.2.07.23.23,0,0,1,.07.19V77.34a.24.24,0,0,1-.27.27H135a.24.24,0,0,1-.26-.26Zm11.72-5.83h-6a.1.1,0,0,0-.11.11v2.22a2.83,2.83,0,0,0,.69,2,2.3,2.3,0,0,0,1.8.78,2.43,2.43,0,0,0,1.57-.55,2.59,2.59,0,0,0,.86-1.44.3.3,0,0,1,.29-.24l.84,0a.32.32,0,0,1,.18.06.13.13,0,0,1,.05.15v.11A3.72,3.72,0,0,1,145.33,77a3.92,3.92,0,0,1-2.54.83,3.78,3.78,0,0,1-2.8-1.09,3.83,3.83,0,0,1-1.08-2.81V68.14A3.87,3.87,0,0,1,140,65.31a4.15,4.15,0,0,1,5.62,0,3.87,3.87,0,0,1,1.08,2.83v3.11a.25.25,0,0,1-.07.2.21.21,0,0,1-.2.06ZM141,66.21a2.92,2.92,0,0,0-.69,2v2a.1.1,0,0,0,.11.11h4.78a.1.1,0,0,0,.11-.11v-2a2.92,2.92,0,0,0-.69-2,2.38,2.38,0,0,0-1.82-.77,2.29,2.29,0,0,0-1.79.78Zm12.42-.69h-2.09a.11.11,0,0,0-.08,0,.11.11,0,0,0,0,.07v8.43a2.86,2.86,0,0,0,.45,1.82,1.8,1.8,0,0,0,1.41.51h.26a.22.22,0,0,1,.26.26v.7a.23.23,0,0,1-.06.2.25.25,0,0,1-.2.07h-.52a3.19,3.19,0,0,1-2.21-.68,3.35,3.35,0,0,1-.75-2.54V65.63a.1.1,0,0,0-.11-.11h-1.07a.22.22,0,0,1-.19-.06.25.25,0,0,1-.07-.2v-.57a.24.24,0,0,1,.07-.2.23.23,0,0,1,.19-.07h1.08a.08.08,0,0,0,.1-.1V61.39a.26.26,0,0,1,.07-.2.22.22,0,0,1,.19-.06H151a.24.24,0,0,1,.2.06.25.25,0,0,1,.06.2v2.93a.11.11,0,0,0,0,.08.08.08,0,0,0,.08,0h2.09a.25.25,0,0,1,.2.07.23.23,0,0,1,.06.2v.57a.22.22,0,0,1-.26.26Zm3.13,11.29a3.08,3.08,0,0,1-1-2.4v-.15a.22.22,0,0,1,.26-.26h.81a.23.23,0,0,1,.26.26v.15a2.06,2.06,0,0,0,.68,1.57,2.46,2.46,0,0,0,1.75.63A2.26,2.26,0,0,0,161,76a2.19,2.19,0,0,0,.64-1.66,2.09,2.09,0,0,0-.36-1.26,2.79,2.79,0,0,0-.92-.79,15.58,15.58,0,0,0-1.49-.7,11.24,11.24,0,0,1-1.67-.82A3.55,3.55,0,0,1,156,69.61a3.77,3.77,0,0,1,.54-4.35,4.16,4.16,0,0,1,5.31,0,3.35,3.35,0,0,1,1,2.52v.07a.23.23,0,0,1-.06.2.26.26,0,0,1-.2.07h-.79a.23.23,0,0,1-.19-.07.24.24,0,0,1-.07-.2v-.13a2.2,2.2,0,0,0-.65-1.62,2.29,2.29,0,0,0-1.7-.65,2.23,2.23,0,0,0-1.68.64,2.3,2.3,0,0,0-.63,1.66,2.06,2.06,0,0,0,.34,1.18,2.65,2.65,0,0,0,.85.75c.34.2.82.43,1.43.71a16,16,0,0,1,1.77.85,3.92,3.92,0,0,1,1.19,1.14,3.66,3.66,0,0,1-.52,4.38,3.82,3.82,0,0,1-2.7,1,3.91,3.91,0,0,1-2.74-.93ZM98.12,59.47a20.28,20.28,0,0,1,1.47,4.69,29.45,29.45,0,0,1,.57,5.85,31.27,31.27,0,0,1-.57,6,18.7,18.7,0,0,1-1.52,4.79.34.34,0,0,1-.3.17H97a.22.22,0,0,1-.19-.09.15.15,0,0,1,0-.18,22.72,22.72,0,0,0,1.34-4.79,33.14,33.14,0,0,0,.53-5.88,32,32,0,0,0-.53-5.78A21.61,21.61,0,0,0,96.8,59.6l0-.1c0-.14.08-.2.23-.2h.82a.32.32,0,0,1,.3.17ZM2,80.83A20.78,20.78,0,0,1,.57,76.14,29.55,29.55,0,0,1,0,70.28a30.68,30.68,0,0,1,.58-6,19.11,19.11,0,0,1,1.53-4.77.32.32,0,0,1,.3-.17h.75a.21.21,0,0,1,.19.08.18.18,0,0,1,0,.19A24.12,24.12,0,0,0,2,64.38a31.9,31.9,0,0,0-.52,5.85A31,31,0,0,0,2,76a24,24,0,0,0,1.32,4.72.19.19,0,0,1,0,.1.17.17,0,0,1-.07.13.28.28,0,0,1-.16,0H2.33A.34.34,0,0,1,2,80.83ZM25.72,53a.47.47,0,0,0,.33.14h3.53a.47.47,0,0,0,.33-.14.46.46,0,0,0,.13-.32V26.77a.44.44,0,0,0-.46-.46H26.05a.51.51,0,0,0-.33.13.46.46,0,0,0-.13.33V52.71a.39.39,0,0,0,.13.32M51.2,39.39a6.45,6.45,0,0,1,3.92,6.33,6.59,6.59,0,0,1-2.43,5.55,10.13,10.13,0,0,1-6.36,1.9H36.66a.47.47,0,0,1-.33-.14.46.46,0,0,1-.13-.32V26.77a.44.44,0,0,1,.46-.46H46a10.14,10.14,0,0,1,6.44,1.8,6.55,6.55,0,0,1,2.27,5.45,5.64,5.64,0,0,1-3.53,5.6c-.16.08-.16.16,0,.23m-10.55-9v7.1a.15.15,0,0,0,0,.14.17.17,0,0,0,.15.05H46a4.83,4.83,0,0,0,3.2-1,3.34,3.34,0,0,0,1.18-2.71,3.48,3.48,0,0,0-1.18-2.78,4.73,4.73,0,0,0-3.2-1H40.84a.19.19,0,0,0-.14.05.17.17,0,0,0-.05.15M49.5,48.22a4.23,4.23,0,0,0,0-5.86,4.72,4.72,0,0,0-3.22-1H40.84a.16.16,0,0,0-.14,0,.15.15,0,0,0-.05.14v7.6a.15.15,0,0,0,.05.14.16.16,0,0,0,.14,0h5.49a4.51,4.51,0,0,0,3.17-1.07M61.06,53a.43.43,0,0,0,.32.14h3.54a.48.48,0,0,0,.46-.46V26.77a.47.47,0,0,0-.14-.33.46.46,0,0,0-.32-.13H61.38a.46.46,0,0,0-.32.13.47.47,0,0,0-.14.33V52.71a.43.43,0,0,0,.14.32M87.33,26.44a.46.46,0,0,0-.13.33l0,17.88c0,.1,0,.16-.08.17s-.1,0-.15-.09L76,26.61a.55.55,0,0,0-.54-.3H72a.49.49,0,0,0-.33.13.46.46,0,0,0-.13.33V52.71a.42.42,0,0,0,.13.32.45.45,0,0,0,.33.14h3.53a.48.48,0,0,0,.46-.46L76,34.83c0-.11,0-.16.08-.18s.1,0,.15.1L87.24,52.86a.55.55,0,0,0,.54.31h3.41a.45.45,0,0,0,.33-.14.43.43,0,0,0,.14-.32V26.77a.47.47,0,0,0-.14-.33.49.49,0,0,0-.33-.13H87.66a.44.44,0,0,0-.33.13M4.79,52.34a10.9,10.9,0,0,0,5.07,1.13,11.19,11.19,0,0,0,5-1.07,7.85,7.85,0,0,0,3.38-3,8.79,8.79,0,0,0,1.19-4.59.31.31,0,0,0-.14-.26.47.47,0,0,0-.32-.12l-3.53-.15c-.31,0-.46.14-.46.42a4.83,4.83,0,0,1-1.41,3.63,5.19,5.19,0,0,1-3.74,1.36A5.21,5.21,0,0,1,6.1,48.26a4.82,4.82,0,0,1-1.42-3.61V34.86A4.85,4.85,0,0,1,6.1,31.22a5.13,5.13,0,0,1,3.76-1.38,5.06,5.06,0,0,1,3.74,1.38A4.87,4.87,0,0,1,15,34.86c0,.29.15.43.46.43l3.53-.2a.42.42,0,0,0,.32-.13.45.45,0,0,0,.14-.33,8.55,8.55,0,0,0-1.19-4.52,7.92,7.92,0,0,0-3.38-3,11.34,11.34,0,0,0-5-1.08,11.14,11.14,0,0,0-5.07,1.12,8,8,0,0,0-3.38,3.14A9.28,9.28,0,0,0,.22,35v9.48a9.28,9.28,0,0,0,1.19,4.72,8.11,8.11,0,0,0,3.38,3.16m122.57,0a8.22,8.22,0,0,1-3.44-3.32,9.94,9.94,0,0,1-1.21-5V35.36a9.61,9.61,0,0,1,1.23-4.89,8.45,8.45,0,0,1,3.43-3.3,11.74,11.74,0,0,1,10.22,0,8.45,8.45,0,0,1,3.43,3.3,9.61,9.61,0,0,1,1.23,4.89v8.75a9.83,9.83,0,0,1-1.23,5,8.37,8.37,0,0,1-3.43,3.32,11.77,11.77,0,0,1-10.23,0m9-4.16a5.43,5.43,0,0,0,1.46-4V35.32a5.46,5.46,0,0,0-1.46-4,5.72,5.72,0,0,0-7.71,0,5.5,5.5,0,0,0-1.46,4v9a5.4,5.4,0,0,0,1.46,3.95,5.72,5.72,0,0,0,7.71,0M116.65,44.5c-.1-1.84.07-7.63,0-9.21a9.9,9.9,0,0,0-1.19-4.88,8.07,8.07,0,0,0-3.34-3.26,11,11,0,0,0-5-1.15,10.54,10.54,0,0,0-4.93,1.15,9.1,9.1,0,0,0-3.32,3.26,10.12,10.12,0,0,0-1.19,4.88V44.5a8.46,8.46,0,0,0,1.91,5.75,9.59,9.59,0,0,0,5.12,3,19.51,19.51,0,0,0,4.83,0,6.62,6.62,0,0,0,1.22-.31l2,2.48a.49.49,0,0,0,.65.06l2.74-2.22a.44.44,0,0,0,.17-.31.47.47,0,0,0-.1-.34l-1.74-2.13a2.41,2.41,0,0,0,.21-.24A8.75,8.75,0,0,0,116.65,44.5Zm-9.48,5.14a4,4,0,0,1-3.61-1.44,4.64,4.64,0,0,1-1.38-3.78V35.06a5.74,5.74,0,0,1,1.38-3.78,4.64,4.64,0,0,1,3.61-1.44,5,5,0,0,1,3.65,1.44,5.86,5.86,0,0,1,1.38,3.78v9.36a6,6,0,0,1-.45,2.51l-1.36-1.68a.48.48,0,0,0-.65-.07L107,47.41a.4.4,0,0,0-.17.3.41.41,0,0,0,.1.34l1.23,1.52A6.5,6.5,0,0,1,107.17,49.64Zm37.06,1H142.3l0,.06a.25.25,0,0,0,0,.12c0,.11.06.17.19.17h.66v2.21h.41V51h.86l0-.07a.36.36,0,0,0,0-.11c0-.11-.06-.17-.19-.17m3.11,2.26c0-.13,0-.28,0-.44s0-.33,0-.51,0-.34,0-.51,0-.3,0-.43,0-.23,0-.3l-.08,0a.32.32,0,0,0-.17,0,.27.27,0,0,0-.21.06.58.58,0,0,0-.11.15c0,.07-.07.17-.13.29s-.12.25-.19.38l-.19.39-.15.31-.11-.21c0-.09-.08-.18-.13-.27l-.14-.3c0-.1-.1-.19-.14-.28l-.12-.25-.08-.17a.28.28,0,0,0-.11-.08.63.63,0,0,0-.19,0,.3.3,0,0,0-.18.06.28.28,0,0,0-.07.17,1.91,1.91,0,0,0,0,.28c0,.12,0,.26,0,.42l0,.47c0,.17,0,.33,0,.48s0,.28,0,.41,0,.21,0,.28h.4a2.45,2.45,0,0,1,0-.25c0-.11,0-.23,0-.36s0-.27,0-.41,0-.28,0-.41,0-.25,0-.36,0-.19,0-.25l.17.36.2.42c.07.14.13.28.2.41s.12.25.16.34h.3a2.24,2.24,0,0,1,.11-.22l.12-.27a2.59,2.59,0,0,0,.14-.29l.14-.29c.05-.09.09-.18.13-.26l.09-.2s0,.11,0,.22a3.53,3.53,0,0,1,0,.36c0,.13,0,.28,0,.43s0,.31,0,.45,0,.26,0,.36a2.13,2.13,0,0,1,0,.22h.4c0-.07,0-.17,0-.3M9.05,64.22a3.89,3.89,0,0,0-2.59.89,3.37,3.37,0,0,0-1.23,2.35.17.17,0,0,0,0,.18.21.21,0,0,0,.19.08l1,0a.22.22,0,0,0,.19-.06.25.25,0,0,0,.07-.2A2.22,2.22,0,0,1,7.44,66,2.29,2.29,0,0,1,9,65.44a2.14,2.14,0,0,1,1.8.87,3.77,3.77,0,0,1,.66,2.32v1.21a.13.13,0,0,1,0,.08.08.08,0,0,1-.08,0h-2a4.89,4.89,0,0,0-3.23,1,4,4,0,0,0-1.22,3.19,3.47,3.47,0,0,0,1,2.86,3.77,3.77,0,0,0,2.41.81,3.4,3.4,0,0,0,3-1.47s.06,0,.09,0,0,0,0,.09v.95a.22.22,0,0,0,.06.19.25.25,0,0,0,.2.07h.86a.24.24,0,0,0,.2-.07.23.23,0,0,0,.07-.19V68.59a4.79,4.79,0,0,0-1-3.18A3.43,3.43,0,0,0,9.05,64.22Zm2.41,9.46a2.74,2.74,0,0,1-.85,2.15,3,3,0,0,1-2,.76A2.25,2.25,0,0,1,6.93,76a2.62,2.62,0,0,1-.63-1.91,2.81,2.81,0,0,1,.83-2.21,3.09,3.09,0,0,1,2.18-.75h2a.1.1,0,0,1,.11.11ZM20,64.22a3.38,3.38,0,0,0-1.47.31,3.19,3.19,0,0,0-1.15.91s0,0-.08,0a.06.06,0,0,1-.05-.06V59.56a.21.21,0,0,0-.07-.2A.22.22,0,0,0,17,59.3h-.86a.24.24,0,0,0-.2.06.23.23,0,0,0-.06.2V77.35a.22.22,0,0,0,.06.19.25.25,0,0,0,.2.07H17a.25.25,0,0,0,.2-.07.22.22,0,0,0,.06-.19v-.73a.07.07,0,0,1,0-.06.11.11,0,0,1,.1,0,3,3,0,0,0,1.15.92,3.66,3.66,0,0,0,4.07-.77,4.09,4.09,0,0,0,1-2.82V68.14a4.14,4.14,0,0,0-1-2.84A3.31,3.31,0,0,0,20,64.22Zm2.22,9.62a2.8,2.8,0,0,1-.7,2,2.4,2.4,0,0,1-1.83.77,2.24,2.24,0,0,1-1.75-.76,2.84,2.84,0,0,1-.69-2V68.22a2.92,2.92,0,0,1,.69-2,2.24,2.24,0,0,1,1.75-.78,2.37,2.37,0,0,1,1.83.78,2.87,2.87,0,0,1,.7,2Zm8.43-9.52a2.35,2.35,0,0,0-1.53.52,3.47,3.47,0,0,0-1,1.47s0,.08-.08.08-.05,0-.05-.08V64.69a.23.23,0,0,0-.06-.2.26.26,0,0,0-.2-.07h-.86a.24.24,0,0,0-.27.27V77.35a.26.26,0,0,0,.07.2.23.23,0,0,0,.2.06h.86a.22.22,0,0,0,.26-.26v-8a4.52,4.52,0,0,1,.66-2.51,2,2,0,0,1,1.7-1,2.73,2.73,0,0,1,1,.13c.17.07.28,0,.34-.13l.21-.89a.29.29,0,0,0-.13-.34,2.34,2.34,0,0,0-1.13-.26Zm6.67-.1a3.72,3.72,0,0,0-2.8,1.09,3.9,3.9,0,0,0-1.07,2.83v5.75a3.9,3.9,0,0,0,1.06,2.84,3.74,3.74,0,0,0,2.81,1.09,3.71,3.71,0,0,0,3.93-3.93V68.14a3.71,3.71,0,0,0-3.93-3.93Zm2.54,9.62a2.8,2.8,0,0,1-.7,2,2.4,2.4,0,0,1-1.83.77,2.3,2.3,0,0,1-1.79-.77,2.82,2.82,0,0,1-.7-2V68.22a2.87,2.87,0,0,1,.7-2,2.31,2.31,0,0,1,1.79-.78,2.37,2.37,0,0,1,1.83.78,2.87,2.87,0,0,1,.7,2Zm10-9.14a4.15,4.15,0,0,0-2-.48A3.72,3.72,0,0,0,45,65.31a3.9,3.9,0,0,0-1.07,2.83v5.75A3.86,3.86,0,0,0,45,76.73a3.73,3.73,0,0,0,2.81,1.09,4.37,4.37,0,0,0,2-.47,3.52,3.52,0,0,0,1.38-1.27,3.33,3.33,0,0,0,.48-1.74v-.21a.24.24,0,0,0-.06-.2.25.25,0,0,0-.2-.06h-.86a.22.22,0,0,0-.26.26v.13a2.23,2.23,0,0,1-.71,1.63,2.49,2.49,0,0,1-1.81.7A2.3,2.3,0,0,1,46,75.82a2.87,2.87,0,0,1-.69-2V68.22a2.81,2.81,0,0,1,.69-2,2.28,2.28,0,0,1,1.79-.78,2.49,2.49,0,0,1,1.81.7,2.23,2.23,0,0,1,.71,1.63v.16a.25.25,0,0,0,.06.2.24.24,0,0,0,.2.06l.86,0a.25.25,0,0,0,.2-.07.22.22,0,0,0,.06-.19v-.16A3.24,3.24,0,0,0,51.2,66a3.62,3.62,0,0,0-1.38-1.28Zm5.89-.28h-.86a.25.25,0,0,0-.2.07.23.23,0,0,0-.06.2V77.35a.25.25,0,0,0,.06.2.24.24,0,0,0,.2.06h.86a.23.23,0,0,0,.2-.06.25.25,0,0,0,.06-.2V64.69a.21.21,0,0,0-.06-.2.25.25,0,0,0-.2-.07Zm7.83,0h-2.1a.08.08,0,0,1-.1-.1V61.39a.26.26,0,0,0-.07-.2.22.22,0,0,0-.19-.06h-.84a.24.24,0,0,0-.2.06.25.25,0,0,0-.06.2v2.93a.11.11,0,0,1,0,.08.08.08,0,0,1-.08,0H58.8a.26.26,0,0,0-.2.07.23.23,0,0,0-.06.2v.57a.24.24,0,0,0,.06.2.25.25,0,0,0,.2.06h1.07a.1.1,0,0,1,.11.11v8.76a3.34,3.34,0,0,0,.75,2.54,3.14,3.14,0,0,0,2.21.68h.52a.24.24,0,0,0,.2-.06.25.25,0,0,0,.06-.2v-.71a.22.22,0,0,0-.06-.19.25.25,0,0,0-.2-.07H63.2a1.76,1.76,0,0,1-1.41-.51,2.79,2.79,0,0,1-.45-1.82V65.63a.1.1,0,0,1,.11-.11h2.09a.22.22,0,0,0,.26-.26v-.57a.23.23,0,0,0-.06-.2.26.26,0,0,0-.2-.07Zm4,0h-.86a.24.24,0,0,0-.2.07.21.21,0,0,0-.06.2V77.35a.22.22,0,0,0,.06.2.23.23,0,0,0,.2.06h.86a.24.24,0,0,0,.2-.06.25.25,0,0,0,.06-.2V64.69a.23.23,0,0,0-.06-.2.29.29,0,0,0-.2-.07Zm8.11-.18a3,3,0,0,0-2.77,1.47.16.16,0,0,1-.09.05s0,0,0-.08v-1a.24.24,0,0,0-.26-.26h-.87a.24.24,0,0,0-.26.26V77.35a.24.24,0,0,0,.26.26h.87a.24.24,0,0,0,.26-.26V68.61a3.62,3.62,0,0,1,.65-2.3,2.17,2.17,0,0,1,1.81-.84,2.14,2.14,0,0,1,1.75.78,3.4,3.4,0,0,1,.63,2.2v8.9a.2.2,0,0,0,.07.19.23.23,0,0,0,.19.07h.87a.24.24,0,0,0,.26-.26v-9a4.71,4.71,0,0,0-.87-3,3,3,0,0,0-2.45-1.06Zm7.83.18h-.86a.24.24,0,0,0-.27.27V77.35a.26.26,0,0,0,.07.2.23.23,0,0,0,.2.06h.86a.22.22,0,0,0,.26-.26V64.69a.23.23,0,0,0-.06-.2.31.31,0,0,0-.2-.07ZM94,65.3A3.66,3.66,0,0,0,90,64.53a3.1,3.1,0,0,0-1.15.91.06.06,0,0,1-.08,0,.05.05,0,0,1,0-.06V59.56a.24.24,0,0,0-.07-.2.23.23,0,0,0-.2-.06h-.86a.22.22,0,0,0-.19.06.21.21,0,0,0-.07.2V77.35a.2.2,0,0,0,.07.19.23.23,0,0,0,.19.07h.86a.24.24,0,0,0,.2-.07.23.23,0,0,0,.07-.19v-.73a0,0,0,0,1,0-.06s0,0,.09,0a3,3,0,0,0,1.15.92A3.66,3.66,0,0,0,94,76.74a4.09,4.09,0,0,0,1-2.82V68.14a4,4,0,0,0-1-2.84Zm-.38,8.54a2.81,2.81,0,0,1-.71,2,2.37,2.37,0,0,1-1.83.77,2.24,2.24,0,0,1-1.75-.76,2.83,2.83,0,0,1-.68-2V68.22a2.87,2.87,0,0,1,.68-2,2.26,2.26,0,0,1,1.75-.78,2.34,2.34,0,0,1,1.83.78,2.83,2.83,0,0,1,.71,2ZM55.26,59.51a1,1,0,0,0-.66.29.88.88,0,0,0-.25.68.92.92,0,0,0,.24.71,1,1,0,0,0,.67.33,1,1,0,0,0,.66-.33.92.92,0,0,0,.22-.71.88.88,0,0,0-.23-.67.9.9,0,0,0-.65-.3Zm11.82,0a1,1,0,1,0,.66,1.68.92.92,0,0,0,.22-.71.88.88,0,0,0-.23-.67.9.9,0,0,0-.65-.3Zm15.94,0a1,1,0,0,0-.68,1.68,1,1,0,0,0,.68.33.94.94,0,0,0,.88-1,.93.93,0,0,0-.24-.67A.88.88,0,0,0,83,59.51Z"/>
      <path data-name="Shape" class="cls-2" d="M157.12,35.19a1.88,1.88,0,1,0,1.88-1.8,1.84,1.84,0,0,0-1.88,1.8m-4-3.64a1.79,1.79,0,0,0,1.15,1.67,1.94,1.94,0,0,0,2.05-.4,1.77,1.77,0,0,0,.4-2A1.88,1.88,0,0,0,155,29.74a1.93,1.93,0,0,0-1.33.53,1.74,1.74,0,0,0-.54,1.28m7.37,0a1.81,1.81,0,0,0,1.16,1.67,1.91,1.91,0,0,0,2-.4,1.75,1.75,0,0,0,.41-2,1.91,1.91,0,0,0-3.06-.58,1.79,1.79,0,0,0-.55,1.28m-10.7-3.46a1.82,1.82,0,0,0,1,1.83,2,2,0,0,0,2.13-.26,1.79,1.79,0,0,0,.51-2,1.9,1.9,0,0,0-1.77-1.17,1.76,1.76,0,0,0-1.87,1.61m7.37,0a1.81,1.81,0,0,0,1,1.83,2,2,0,0,0,2.12-.26,1.77,1.77,0,0,0,.51-2A1.89,1.89,0,0,0,159,26.48a1.77,1.77,0,0,0-1.88,1.61m7.38,0a1.82,1.82,0,0,0,1,1.83,2,2,0,0,0,2.13-.26,1.8,1.8,0,0,0,.51-2,1.91,1.91,0,0,0-1.77-1.17,1.76,1.76,0,0,0-1.87,1.61M145.7,25a1.86,1.86,0,0,0,.85,2,2,2,0,0,0,2.23-.12,1.82,1.82,0,0,0,.62-2.07,1.93,1.93,0,0,0-1.82-1.24A1.7,1.7,0,0,0,145.7,25m7.38,0a1.84,1.84,0,0,0,.84,2,2,2,0,0,0,2.23-.12,1.79,1.79,0,0,0,.62-2.07A1.93,1.93,0,0,0,155,23.59,1.71,1.71,0,0,0,153.08,25m7.37,0a1.86,1.86,0,0,0,.85,2,2,2,0,0,0,2.23-.12,1.82,1.82,0,0,0,.62-2.07,1.93,1.93,0,0,0-1.82-1.24A1.71,1.71,0,0,0,160.45,25m7.38,0a1.84,1.84,0,0,0,.84,2,2,2,0,0,0,2.23-.12,1.79,1.79,0,0,0,.62-2.07,1.93,1.93,0,0,0-1.82-1.24A1.7,1.7,0,0,0,167.83,25m-25.46-2.73c0,.7.84,1.27,1.88,1.27s1.87-.57,1.87-1.27S145.29,21,144.25,21s-1.88.57-1.88,1.26m7.38,0c0,.7.84,1.27,1.87,1.27s1.88-.57,1.88-1.27S152.66,21,151.62,21s-1.87.57-1.87,1.26m7.37,0c0,.7.84,1.27,1.88,1.27s1.87-.57,1.87-1.27S160,21,159,21s-1.88.57-1.88,1.26m7.38,0c0,.7.84,1.27,1.87,1.27s1.88-.57,1.88-1.27S167.41,21,166.37,21s-1.87.57-1.87,1.26m7.37,0c0,.7.84,1.27,1.88,1.27s1.87-.57,1.87-1.27S174.78,21,173.75,21s-1.88.57-1.88,1.26m-33.54-2.2c0,.5.84.92,1.87.92s1.88-.42,1.88-.92-.84-.92-1.88-.92-1.87.41-1.87.92m7.37,0c0,.5.84.92,1.88.92s1.87-.42,1.87-.92-.84-.92-1.87-.92-1.88.41-1.88.92m7.38,0c0,.5.83.92,1.87.92s1.88-.42,1.88-.92-.84-.92-1.88-.92-1.87.41-1.87.92m7.37,0c0,.5.84.92,1.88.92s1.87-.42,1.87-.92-.84-.92-1.87-.92-1.88.41-1.88.92m7.38,0c0,.5.83.92,1.87.92s1.88-.42,1.88-.92-.84-.92-1.88-.92-1.87.41-1.87.92m7.37,0c0,.5.84.92,1.88.92s1.87-.42,1.87-.92-.84-.92-1.87-.92-1.88.41-1.88.92M135,18.53c0,.38.84.69,1.88.69s1.87-.31,1.87-.69-.84-.69-1.87-.69-1.88.31-1.88.69m7.37,0c0,.38.84.69,1.88.69s1.87-.31,1.87-.69-.83-.69-1.87-.69-1.88.31-1.88.69m7.38,0c0,.38.84.69,1.87.69s1.88-.31,1.88-.69-.84-.69-1.88-.69-1.87.31-1.87.69m7.37,0c0,.38.84.69,1.88.69s1.87-.31,1.87-.69-.84-.69-1.87-.69-1.88.31-1.88.69m7.38,0c0,.38.84.69,1.87.69s1.88-.31,1.88-.69-.84-.69-1.88-.69-1.87.31-1.87.69m7.37,0c0,.38.84.69,1.88.69s1.87-.31,1.87-.69-.83-.69-1.87-.69-1.88.31-1.88.69m7.38,0c0,.38.84.69,1.87.69s1.88-.31,1.88-.69-.84-.69-1.88-.69-1.87.31-1.87.69m-40.7-1.61c0,.5.84.92,1.87.92s1.88-.42,1.88-.92-.84-.92-1.88-.92-1.87.41-1.87.92m7.37,0c0,.5.84.92,1.88.92s1.87-.42,1.87-.92-.84-.92-1.87-.92-1.88.41-1.88.92m7.38,0c0,.5.84.92,1.87.92s1.88-.42,1.88-.92-.84-.92-1.88-.92-1.87.41-1.87.92m7.37,0c0,.5.84.92,1.88.92s1.87-.42,1.87-.92-.84-.92-1.87-.92-1.88.41-1.88.92m7.38,0c0,.5.83.92,1.87.92s1.88-.42,1.88-.92S171,16,169.92,16s-1.87.41-1.87.92m7.37,0c0,.5.84.92,1.88.92s1.87-.42,1.87-.92-.84-.92-1.87-.92-1.88.41-1.88.92m-33.54-2.21c0,.7.84,1.26,1.87,1.26s1.88-.56,1.88-1.26-.84-1.27-1.88-1.27-1.87.57-1.87,1.27m7.37,0c0,.7.84,1.26,1.88,1.26s1.87-.56,1.87-1.26-.83-1.27-1.87-1.27-1.88.57-1.88,1.27m7.38,0c0,.7.84,1.26,1.87,1.26s1.88-.56,1.88-1.26-.84-1.27-1.88-1.27-1.87.57-1.87,1.27m7.37,0c0,.7.84,1.26,1.88,1.26s1.87-.56,1.87-1.26-.83-1.27-1.87-1.27S164,14,164,14.71m7.38,0c0,.7.84,1.26,1.87,1.26s1.88-.56,1.88-1.26-.84-1.27-1.88-1.27-1.87.57-1.87,1.27M145.93,12a1.94,1.94,0,0,0,3.75,0,1.95,1.95,0,0,0-3.75,0m7.37,0a1.92,1.92,0,0,0,1.88,1.43A1.9,1.9,0,0,0,157.05,12a1.91,1.91,0,0,0-1.87-1.42A1.93,1.93,0,0,0,153.3,12m7.38,0a1.94,1.94,0,0,0,3.75,0,1.95,1.95,0,0,0-3.75,0m7.37,0a1.92,1.92,0,0,0,1.88,1.43A1.9,1.9,0,0,0,171.8,12a1.91,1.91,0,0,0-1.87-1.42A1.93,1.93,0,0,0,168.05,12M149.24,8.91a1.8,1.8,0,0,0,1,1.82,1.93,1.93,0,0,0,2.13-.26,1.77,1.77,0,0,0,.51-2,1.88,1.88,0,0,0-1.77-1.17,1.75,1.75,0,0,0-1.87,1.61m7.37,0a1.8,1.8,0,0,0,1,1.82,1.92,1.92,0,0,0,2.12-.26,1.76,1.76,0,0,0,.51-2,1.88,1.88,0,0,0-1.76-1.17,1.75,1.75,0,0,0-1.88,1.61m7.38,0a1.8,1.8,0,0,0,1,1.82,1.93,1.93,0,0,0,2.13-.26,1.77,1.77,0,0,0,.51-2,1.88,1.88,0,0,0-1.77-1.17A1.74,1.74,0,0,0,164,8.91m-10.7-3.45a1.88,1.88,0,0,0,3.75,0,1.88,1.88,0,0,0-3.75,0m7.37,0a1.88,1.88,0,0,0,3.75,0,1.84,1.84,0,0,0-1.88-1.8,1.9,1.9,0,0,0-1.32.53,1.79,1.79,0,0,0-.55,1.28m-4-3.65a1.88,1.88,0,0,0,3.75,0,1.87,1.87,0,0,0-3.74,0"/>
      </g>
    </g>
  </g>
</svg>
