<svg xmlns:svg="http://www.w3.org/2000/svg" x="0px" y="0px" viewBox="0 0 1000 409.4">
  <path id="path4664" fill="#ffffff" d="M19.5,163.8c11.8-43.1,60.9-53.4,106.2-54.7c37.2-1,78.7,3.9,78.7,3.9l-19.5,71.2
    c0,0-41.5-4.9-78.7-3.9C60.9,181.7,11.8,191.9,0,235.1L19.5,163.8z"/>
  <path id="path4655" fill="#ffffff" d="M645.6,88c-59.6,0-74.8,57.6-83.4,88.9l-63.6,232.6h37.1l56.4-206.2h38.6L605,297h37.1
    l30.8-112.5h-75.7c3.9-14.2,8-29.3,11.4-41.6c6.2-22.8,16.4-39.3,31.2-38.7c16.3,0.6,8,11.3,5.8,19.5c-3.1,11.3,5.3,22.7,19.9,22.7
    C697.3,146.4,705.1,88,645.6,88z M435,128.7L435,128.7L389,297h38.7l17.1-62.3h33.6c37.1,0,61.7-20.5,68.4-48.9
    c6.2-26.6-9.3-57.1-50.9-57.1C475.5,128.7,455.3,128.7,435,128.7L435,128.7z M468.3,148.5h14.9c15.6,0,27.9,12.5,25,34.2
    c-2.8,20.1-24.6,32.2-43.7,32.2h-14.3L468.3,148.5z M835.3,181.1c-32.5,0-56,28-61.6,56c-5.4,26.9,10,62.6,52.4,62.6
    c30.2,0,45.3-13.3,45.3-13.3l-6.9-17.1c0,0-12.7,10.3-30.4,10.3c-17.7,0-28.8-13.9-26.3-36.2H880
    C885.1,230.3,887.9,181.1,835.3,181.1z M979.1,182.6c-24.2,0-38.5,25-38.5,25l6.3-23.1h-37.1L879,297h37.1c0,0,8.9-32.9,13.5-49.3
    c7-25.7,21.3-41.7,28.2-42.4c8-0.8,7.2,18.4,22.7,18.4C1004.1,223.8,1009.2,182.6,979.1,182.6L979.1,182.6z M686.9,184.5l-5.1,18.7
    h47.1l-74,93.8h104.5l5.1-18.7h-53.1l74-93.8H686.9z M835.1,199.7L835.1,199.7c20.2,0,15.6,26.7,15.6,26.7l-40.4-0.1
    C810.3,226.2,817,199.7,835.1,199.7L835.1,199.7z"/>
  <path id="path4668" fill="#ffffff" d="M301.8,297.3C168.7,289,14,220.3,19.5,163.8L1.1,231c-5.6,57.7,137.9,126.1,281.2,137.6
    L301.8,297.3z"/>
  <path id="path4672" fill="#ffffff" d="M350.2,204.7c-11.8,43.1-60.9,53.4-106.2,54.7c-37.2,1-78.7-3.9-78.7-3.9l19.5-71.2
    c0,0,41.5,4.9,78.7,3.9c45.2-1.3,94.4-11.5,106.2-54.7L350.2,204.7z"/>
  <path id="path4674" fill="#ffffff" d="M67.9,71.2c133.1,8.3,287.8,77,282.4,133.5l18.4-67.2C374.2,79.9,230.7,11.5,87.3,0L67.9,71.2z"
    />
</svg>
